<svg version="1.2" xmlns="http://www.w3.org/2000/svg" viewBox="0 0 512 512" width="512" height="512">
	<defs>
		<linearGradient id="grad1" x1="0%" x2="0%" y1="0%" y2="100%">
			<stop offset="0%" stop-color="yellow" />
			<stop offset="100%" stop-color="red" />
		</linearGradient>
	</defs>
	<style>
		.s0 { opacity: 1;fill: url(#grad1) } 
	</style>
	<path id="Path 0" class="s0" d="m274.82 5.75c-3.32 3.16-8.18 8.45-10.8 11.75-2.62 3.3-6.69 9.15-9.04 13-2.36 3.85-5.59 10.15-7.18 14-1.59 3.85-3.78 10.38-4.86 14.5-1.08 4.13-2.45 11.55-3.03 16.5-0.59 4.95-1.26 9.56-1.49 10.25-0.26 0.76-3.85-1.62-9.17-6.08-4.81-4.03-11.45-9.35-14.75-11.82-3.3-2.47-10.05-6.91-15-9.87-4.95-2.96-14.51-7.99-21.25-11.18-6.74-3.19-13.37-5.8-14.75-5.8-1.37 0-2.51 0.34-2.52 0.75-0.01 0.41 1.47 2.55 3.29 4.75 1.82 2.2 4.89 6.25 6.82 9 1.92 2.75 5.62 8.49 8.2 12.75 3.82 6.29 4.82 8.93 5.32 14 0.33 3.44 0.11 8.84-0.5 12-0.61 3.16-2.35 8.27-3.86 11.36-1.51 3.09-4.66 7.59-7 10-2.34 2.41-6.84 6.04-10 8.06-3.16 2.02-12.5 6.75-20.75 10.51-8.25 3.76-17.44 8.52-20.42 10.58-2.98 2.06-7.25 5.87-9.5 8.48-2.24 2.61-5.66 7.33-7.6 10.5-1.93 3.17-4.94 10.04-6.68 15.26-1.74 5.22-3.86 14.22-4.72 20-0.86 5.78-1.57 13.31-1.57 16.75l-0.01 6.25h92c-0.81-3.49-1.33-6.53-1.67-9-0.44-3.21 0.01-6.5 1.56-11.5 1.19-3.85 3.61-9.11 5.39-11.68 1.77-2.57 6.07-8.42 9.54-13 3.48-4.58 7.43-9.67 8.78-11.32 1.35-1.65 2.78-2.62 3.18-2.17 0.4 0.46 0.87 10.36 1.06 22 0.19 11.65-0.04 24.24-0.5 28-0.74 6.02-0.63 6.95 0.91 7.75 0.98 0.52 20.3 0.91 44 0.9 23.24 0 42.81-0.34 43.5-0.75 0.96-0.56 1.03-2.26 0.31-7.23-0.52-3.57-1.6-9.43-2.4-13-0.8-3.57-2.58-10.78-3.95-16-1.38-5.22-3.23-11.3-4.13-13.5-0.9-2.2-1.62-4.79-1.6-5.75 0.01-0.96 0.25-1.75 0.52-1.75 0.27 0 1.74 0.62 3.25 1.38 1.51 0.76 4.99 2.9 7.74 4.75 2.74 1.85 6.34 4.74 8 6.42 1.65 1.68 4.88 5.51 7.17 8.5 2.29 3 5.33 7.7 6.77 10.45 1.43 2.75 3.13 7.47 3.77 10.5 0.79 3.73 0.86 7.05 0.23 10.3-0.51 2.64-0.7 5.01-0.43 5.28 0.27 0.26 20.86 0.46 45.75 0.45l45.25-0.03c-0.01-8.91-0.71-16.22-1.56-22-0.85-5.78-2.99-14.78-4.75-20-1.76-5.22-4.77-12.15-6.7-15.4-1.92-3.24-5.97-8.42-8.99-11.52-3.02-3.09-6.74-6.62-8.25-7.85-1.51-1.23-4.44-3.12-6.5-4.2-2.06-1.09-8.25-3.82-13.75-6.08-5.5-2.25-12.4-5.53-15.34-7.27-3.26-1.94-7.12-5.52-9.9-9.18-2.5-3.3-5.36-7.8-6.35-10-0.99-2.2-2.5-6.7-3.36-10-0.86-3.3-1.54-8.92-1.52-12.5 0.02-3.58 0.65-9.2 1.4-12.5 0.74-3.3 2.72-10.5 4.4-16 1.67-5.5 3.29-10.79 3.61-11.75 0.31-0.96 0.11-1.75-0.44-1.75-0.55 0-3.98 2.81-7.63 6.25-3.64 3.44-8.76 8.95-11.37 12.25-2.62 3.3-6.8 9.37-9.29 13.5-2.5 4.12-5.87 10.87-7.5 15-1.62 4.12-3.8 10.77-4.83 14.76-1.03 3.99-2.22 7.25-2.63 7.25-0.41-0.01-2.5-3.72-4.63-8.26-2.14-4.54-5.49-13.42-7.45-19.75-1.96-6.33-4.32-15.33-5.24-20-1.33-6.74-1.56-11.82-1.12-24.5 0.38-11.1 1.17-18.45 2.56-24 1.11-4.4 2.71-9.91 3.57-12.25 1.42-3.86 1.42-4.25-0.02-4.25-0.86 0-4.29 2.59-7.6 5.75zm-183.06 230.93c-1.01 0.27-1.97 1.79-2.31 3.64-0.31 1.75-0.43 12.93-0.26 24.85 0.17 11.92 0.69 22.04 1.15 22.5 0.46 0.46 4.29 1.06 8.5 1.33l7.66 0.5c5.1 15.5 8.41 25.85 10.65 33 2.23 7.15 4.65 15.02 5.37 17.5 0.72 2.48 4.76 15.3 8.98 28.5 4.22 13.2 9.22 28.73 11.12 34.5 1.9 5.77 4.82 14.77 6.5 20 1.68 5.23 4.17 13.1 5.54 17.5 1.36 4.4 3.91 12.6 5.66 18.23 2.45 7.89 3.64 10.35 5.18 10.74 1.1 0.28 14.37 0.48 29.5 0.45 15.12-0.04 28.28-0.37 29.24-0.74 1.18-0.46 3.86-6.78 8.34-19.68 3.63-10.45 9.41-27.1 12.84-37 3.43-9.9 6.83-19.13 7.54-20.5 1.28-2.46 1.32-2.47 2.69-0.5 0.76 1.1 1.38 2.56 1.37 3.25-0.01 0.69 2.85 9.91 6.35 20.5 3.51 10.59 8.06 24.65 10.11 31.25 2.05 6.6 4.36 14.14 5.12 16.75 0.82 2.76 2.24 5.17 3.4 5.75 1.19 0.6 13.38 0.99 30.25 0.98 15.54 0 28.81-0.34 29.49-0.75 0.69-0.4 5.1-11.98 9.8-25.73 4.7-13.75 11.87-34.68 15.92-46.5 4.06-11.82 12.98-37.93 19.84-58 6.85-20.07 13.53-39.43 14.83-43l2.38-6.5c11.62-0.77 15.55-1.34 16.24-1.75 0.94-0.57 1.25-6.62 1.25-24.75 0-20-0.25-24.25-1.5-25.5-1.3-1.3-8-1.47-50.04-1.25-41.87 0.22-48.66 0.46-49.48 1.75-0.53 0.83-0.96 12.04-0.96 25.25l-0.02 23.75c3.87 1.55 8.6 2 13 2 5.74 0 8 0.35 7.99 1.25-0.01 0.69-4.29 13.85-9.51 29.25-5.23 15.4-11.3 33.51-13.49 40.25-2.59 7.95-4.43 12.13-5.24 11.9-0.69-0.19-1.99-2.33-2.88-4.75-0.9-2.42-2.42-7.1-3.36-10.4-0.95-3.3-2.95-9.6-4.44-14-1.5-4.4-3.28-9.57-3.97-11.5-0.69-1.93-3.7-11.38-6.69-21-2.99-9.63-5.43-18.29-5.42-19.25 0.01-1.51 1.02-1.75 7.26-1.73 4.27 0.01 7.99-0.51 9.04-1.25 1.66-1.17 1.77-3.14 1.5-25.44-0.16-13.29-0.66-24.54-1.12-25-0.46-0.46-21.95-0.96-47.76-1.11-41.02-0.24-47.11-0.08-48.42 1.25-1.23 1.27-1.49 5.59-1.52 25.28l-0.03 23.75c3.92 1.94 8.21 2.5 12.06 2.5 6.78 0 6.98 0.07 6.38 2.25-0.35 1.24-1.74 5.85-3.09 10.25-1.35 4.4-7.26 22.3-13.13 39.77-5.86 17.48-11.11 31.77-11.66 31.77-0.55-0.01-1.51-1.48-2.13-3.28-0.63-1.79-2.13-6.64-3.34-10.76-1.21-4.13-5.14-16.73-8.72-28-3.59-11.27-7.55-23.65-8.81-27.5-1.26-3.85-2.56-8.69-2.89-10.75l-0.61-3.75c10.85 0 14.9-0.45 16-1 1.92-0.96 2-2 2-25.5 0-23.5-0.08-24.54-2-25.5-1.25-0.63-18.68-0.96-46.75-0.88-24.61 0.06-45.53 0.31-46.49 0.56z"/>
</svg>