<svg version="1.2" xmlns="http://www.w3.org/2000/svg" viewBox="0 0 512 512" width="512" height="512">
	<defs>
		<linearGradient id="grad1" x1="0%" x2="0%" y1="0%" y2="100%">
			<stop offset="0%" stop-color="yellow" />
			<stop offset="100%" stop-color="red" />
		</linearGradient>
	</defs>
	<style>
		.s0 { opacity: 1;fill: url(#grad1) } 
	</style>
	<path id="Path 0" fill-rule="evenodd" class="s0" d="m270.73 9c0.41 0 6.33 8.66 13.17 19.25 6.84 10.59 14.37 22.85 16.74 27.25 2.36 4.4 5.61 11.6 7.23 16 1.62 4.4 3.67 11.83 4.55 16.5 0.88 4.67 1.59 13.22 1.58 19-0.01 5.78-0.62 12.75-1.35 15.5-0.72 2.75-3.42 9.05-5.98 14-2.56 4.95-7.93 13.32-11.92 18.6-3.99 5.28-10.13 13.38-13.64 18-3.52 4.62-7.9 11.55-9.75 15.4-1.84 3.85-3.86 9.47-4.47 12.5-0.62 3.03-0.93 8.87-0.69 13 0.29 5.11 1.23 9.25 2.92 13 1.5 3.32 3.86 6.49 5.94 8 3 2.18 4.47 2.5 11.44 2.47 6.54-0.02 9.01-0.51 13.5-2.65 3.2-1.53 7.3-4.66 9.81-7.47 2.97-3.34 4.93-6.87 6.32-11.35 1.52-4.93 2.21-11.08 2.83-25.5 0.61-14.28 1.36-21.11 3.02-27.5 1.21-4.68 3.45-11.2 4.97-14.5 1.51-3.3 4.61-8.47 6.88-11.5 2.27-3.03 6.95-7.89 10.4-10.8 3.45-2.92 9.08-6.63 12.52-8.25 3.44-1.62 6.42-2.84 6.63-2.7 0.2 0.14-1.83 4.08-4.53 8.75-2.7 4.68-5.83 11.43-6.96 15-1.48 4.66-2.22 10.32-2.59 20-0.4 10.29-0.12 15.64 1.17 22.5 0.93 4.95 3.6 14.18 5.94 20.5 2.34 6.32 9.16 22.88 15.17 36.79 6.01 13.91 11.37 25.14 11.92 24.96 0.55-0.19 4.73-7.75 9.29-16.8 4.56-9.05 9.06-17.25 10-18.23 0.94-0.98 1.94-1.77 2.21-1.76 0.27 0.02 1.08 6.22 1.79 13.79 0.71 7.56 2.85 22.75 4.74 33.75 1.9 11 4.56 25.85 5.9 33 1.35 7.15 3.47 19.75 4.72 28 1.79 11.9 2.27 19.34 2.28 36 0.02 19.22-0.2 21.93-2.59 32-1.44 6.05-4.01 14.6-5.7 19-1.69 4.4-5.45 11.99-8.36 16.87-2.9 4.88-8.7 12.53-12.88 17-4.18 4.47-11.61 10.99-16.5 14.49-4.9 3.49-14.3 8.96-20.9 12.14-6.6 3.18-16.27 7.14-21.5 8.79-5.23 1.65-11.98 3.49-15 4.1-3.02 0.6-9.33 1.83-14 2.72-4.68 0.89-12.55 2.27-17.5 3.06-4.95 0.8-18.45 1.71-30 2.03-13.25 0.37-25.8 0.14-34-0.62-7.15-0.66-18.4-2.26-25-3.55-6.6-1.29-13.35-2.89-15-3.55-1.65-0.66-6.6-2.22-11-3.48-4.4-1.25-10.7-3.28-14-4.51-3.3-1.24-10.48-5.22-15.95-8.87-5.47-3.64-13.29-9.77-17.38-13.62-4.1-3.85-10.15-10.38-13.45-14.5-3.3-4.13-8.05-10.65-10.55-14.5-2.5-3.85-7.36-12.85-10.81-20-3.44-7.15-8.27-19.07-10.73-26.5-2.45-7.43-5.66-19.35-7.11-26.5-1.46-7.15-3.35-19.52-4.2-27.5-1.08-10.13-1.36-19.17-0.95-30 0.33-8.52 1.28-19.89 2.11-25.25 0.84-5.36 2.39-13.46 3.45-18 1.06-4.54 3.15-11.63 4.63-15.75 1.48-4.13 4.5-11.1 6.7-15.5 2.21-4.4 6.16-11.15 8.79-15 2.62-3.85 7.17-9.47 15.45-18l0.62 22c0.33 12.1 0.93 25.37 1.32 29.5 0.39 4.12 1.57 12.68 2.62 19 1.05 6.32 2.84 14.87 3.97 19 1.13 4.12 4.26 12 6.96 17.5 2.69 5.5 6.27 11.46 7.95 13.25 1.68 1.79 3.29 3.14 3.57 3 0.28-0.14-0.16-3.63-0.97-7.75-0.82-4.13-2.38-13.13-3.46-20-1.08-6.88-2.54-17.68-3.24-24-0.7-6.32-1.28-22.3-1.27-35.5 0-13.57 0.54-28.13 1.26-33.5 0.69-5.22 2.12-13.78 3.17-19 1.06-5.22 3.11-13.1 4.57-17.5 1.45-4.4 4.31-11.6 6.34-16 2.04-4.4 5.67-10.93 8.08-14.5 2.4-3.57 7.33-9.46 10.94-13.07 3.61-3.61 9.49-8.54 13.07-10.96 3.57-2.42 14.15-7.89 23.5-12.17 9.35-4.28 21.64-10.15 27.31-13.04 5.67-2.89 13.32-7.54 17-10.33 3.68-2.79 8.86-7.74 11.5-11 2.65-3.26 6.33-9.08 8.18-12.93 1.85-3.85 4.07-10.49 4.94-14.75 0.86-4.26 1.57-12.03 1.57-17.25 0-5.23 0.33-9.5 0.73-9.5zm-114.41 311.04l0.18 16.46 11 1c5.71 17.05 10.14 30.77 13.53 41.5 3.39 10.72 7.06 22.42 8.15 26 1.09 3.57 3.04 9.65 4.33 13.5 1.28 3.85 4.43 13.75 6.99 22 2.56 8.25 5.05 16.35 5.54 18 0.52 1.77 1.82 3.3 3.17 3.74 1.26 0.4 10.16 0.73 19.79 0.73 9.62 0 18.4-0.24 19.5-0.54 1.6-0.43 3.77-5.65 10.92-26.24 4.9-14.13 9.4-26.28 10-27.01 0.89-1.1 1.19-1.1 1.73 0 0.35 0.73 3.36 9.64 6.68 19.82 3.32 10.17 6.96 21.76 8.1 25.75 1.17 4.11 2.72 7.47 3.57 7.75 0.82 0.27 9.94 0.51 20.25 0.52 13.59 0.01 19.22-0.33 20.47-1.25 0.95-0.71 4.87-10.38 8.82-21.77 3.91-11.28 8.61-25 10.44-30.5 1.84-5.5 7.81-23.05 13.27-39 5.46-15.95 10.45-30.01 11.09-31.25 0.95-1.84 2.12-2.3 6.41-2.5l5.25-0.25v-35c-48.83-0.45-64.46-0.34-66.25-0.04l-3.25 0.54 0.5 34.5c10.08 0.4 12.71 0.98 13.05 1.75 0.3 0.69-2.9 11.37-7.1 23.75-4.21 12.37-8.28 24.64-9.05 27.25-0.86 2.93-1.97 4.75-2.9 4.75-0.83 0-1.77-1.01-2.09-2.25-0.33-1.24-3.94-12.6-8.01-25.25-4.08-12.65-7.53-24.35-7.66-26-0.24-2.99-0.22-3 5.51-3.25l5.75-0.25-0.5-35.5c-57.06-0.4-65.32-0.15-66.31 0.77-1.01 0.94-1.24 5.09-1 17.73l0.31 16.5c11.68 0.97 11.99 1.13 11.77 3.5-0.12 1.37-4.17 14.35-9 28.84-4.82 14.49-9.22 26.41-9.77 26.5-0.55 0.09-2.04-3.22-3.3-7.34-1.27-4.13-4.98-15.94-8.25-26.25-3.27-10.31-5.95-20.1-5.95-21.75 0-2.96 0.08-3 5.75-3.25l5.75-0.25c0.39-24.8 0.07-32.35-0.5-33.5-0.97-1.94-2-2-33.52-2-25.66 0-32.62 0.27-32.94 1.29-0.22 0.71-0.32 8.69-0.22 17.75zm238.24-268.04c0.24 0 2.55 3.26 5.12 7.25 2.58 3.99 5.87 10.17 7.32 13.75 1.45 3.57 3.44 9.42 4.42 13 0.98 3.57 2.09 10.55 2.47 15.5 0.37 4.95 0.36 12.6-0.03 17-0.44 4.9-1.92 11.29-3.82 16.5-1.71 4.68-4.5 10.97-6.21 14-1.7 3.03-7.46 12.03-12.79 20-5.34 7.97-11.58 17.76-13.87 21.75-2.29 3.99-4.62 7.25-5.17 7.25-0.55 0-2.35-2.36-4.01-5.25-1.65-2.89-3.88-8.18-4.95-11.75-1.08-3.57-2.24-9.43-2.59-13-0.42-4.4-0.11-8.92 0.98-14 0.89-4.13 3.37-11.78 5.51-17 2.15-5.22 6.46-15.35 9.6-22.5 3.13-7.15 7.42-18.18 9.54-24.5 2.12-6.33 4.51-14.88 5.32-19 0.81-4.13 1.76-10.09 2.1-13.25 0.35-3.16 0.82-5.75 1.06-5.75zm-257.31 68.1c0.41-0.05 0.75 0.35 0.75 0.9 0 0.55-1.97 4.94-4.38 9.75-2.41 4.81-7.51 13.93-11.33 20.25-3.82 6.32-12.57 20.05-19.44 30.5-6.87 10.45-14.33 22.15-16.57 26-2.24 3.85-5.78 10.38-7.86 14.5-2.08 4.13-5.71 12-12.35 27.5l0.46-9.5c0.25-5.22 0.96-13.55 1.56-18.5 0.61-4.95 1.97-13.28 3.03-18.5 1.06-5.22 3.01-13.1 4.35-17.5 1.33-4.4 4.06-11.82 6.06-16.5 2.01-4.68 5.7-11.65 8.21-15.5 2.51-3.85 7.08-9.63 10.16-12.84 3.08-3.22 8.52-7.79 12.1-10.17 3.57-2.37 8.97-5.29 12-6.48 3.02-1.19 7.07-2.53 9-2.98 1.92-0.46 3.84-0.87 4.25-0.93z"/>
</svg>